<svg
      width="100"
      height="100"
      viewBox="0 0 100 100"
      fill="none"
      xmlns="http://www.w3.org/2000/svg"
    >
      <rect width="100" height="100" fill="#FFCC00" />
      <path
        d="M17.5859 42.9289L14.3911 47.2699H31.8032C32.6837 47.2699 32.6727 47.6012 32.2423 48.1876C31.8054 48.7806 31.0742 49.8059 30.6285 50.4096C30.4023 50.7149 29.9939 51.2706 31.3465 51.2706H38.4671L40.5775 48.4029C41.8861 46.6266 40.6915 42.9312 36.0125 42.9312L17.5859 42.9289Z"
        fill="#D40511"
      />
      <path
        d="M13.0975 57.0716L19.5156 48.3502H27.4795C28.36 48.3502 28.349 48.6839 27.9187 49.2679L26.2938 51.4812C26.0677 51.7866 25.6593 52.3419 27.0118 52.3419H37.6786C36.7939 53.5582 33.9129 57.0716 28.7487 57.0716H13.0975ZM49.8496 52.3399L46.3692 57.0716H37.1889L40.6692 52.3399H49.8496ZM63.9109 51.2682H41.4596L47.5989 42.9289H56.7749L53.2572 47.7112H57.3522L60.8742 42.9289H70.0502L63.9109 51.2682ZM63.1229 52.3399L59.6426 57.0716H50.4666L53.9469 52.3399H63.1229ZM0 54.2062H13.5213L12.7835 55.2096H0V54.2062ZM0 52.3399H14.8958L14.1559 53.3432H0V52.3399ZM0 56.0726H12.149L11.4134 57.0716H0V56.0726ZM99.9999 55.2096H86.5269L87.2669 54.2062H99.9999V55.2096ZM99.9999 57.0716H85.1592L85.8926 56.0726H99.9999V57.0716ZM88.6392 52.3399H99.9999V53.3456H87.9016L88.6392 52.3399ZM82.7592 42.9289L76.6199 51.2682H66.8949L73.0386 42.9289H82.7592ZM66.1089 52.3399C66.1089 52.3399 65.4392 53.2576 65.1122 53.6966C63.9616 55.2556 64.9782 57.0692 68.7396 57.0692H83.4772L86.9572 52.3399H66.1089Z"
        fill="#D40511"
      />
    </svg>
