<svg
      width="100"
      height="100"
      viewBox="0 0 100 100"
      fill="none"
      xmlns="http://www.w3.org/2000/svg"
    >
      <rect width="100" height="100" fill="#CC2229" />
      <path
        fill-rule="evenodd"
        clip-rule="evenodd"
        d="M3.87736 47.5023C4.14064 46.4125 4.44763 45.142 6.27261 45.142H13.6178C16.3124 45.142 15.9546 46.6223 15.7416 47.5023L14.7731 51.5122H6.98872L6.69485 52.7281C6.50148 53.5283 7.03952 54.0178 8.03913 54.0178H14.1674L13.4857 56.8374H4.37935C1.62195 56.8374 1.86229 55.8427 2.19877 54.4504L3.87736 47.5023ZM7.52294 49.3016H11.1642L11.4127 48.3265C11.4892 48.0272 11.5984 47.5558 10.8976 47.5558H8.68424C8.10741 47.5558 7.87526 47.9147 7.78022 48.2905L7.52294 49.3016ZM26.9701 45.1414H19.8526C17.6676 45.1414 17.3536 46.3972 17.0843 47.5552C16.8155 48.7138 17.2268 49.7768 18.641 50.7884C20.0552 51.7995 21.6333 52.4533 21.3668 53.3612C21.2548 53.7425 20.7801 54.0172 19.8275 54.0172H15.5231L14.8414 56.8369H21.9217C23.3048 56.8369 25.0167 56.862 25.8339 55.5565C26.6511 54.251 26.4205 53.2055 25.6826 52.124C24.9441 51.043 23.502 50.3481 22.4265 49.301C21.7928 48.6838 21.8272 47.5552 22.8558 47.5552H26.3867L26.9701 45.1414ZM28.3007 45.1414H30.5872L31.317 42.1218H35.4804L34.7512 45.1414H36.8821L36.2992 47.5552H34.1684L32.847 53.0242C32.6072 54.0172 32.9153 54.4296 34.1897 54.4296L33.6079 56.8369H30.549C27.7616 56.8369 28.2226 54.9305 28.4433 54.0172L30.0044 47.5552H27.7179L28.3007 45.1414ZM37.6315 47.5552L38.2149 45.1414H47.0972C49.2614 45.1414 48.9943 46.7539 48.8004 47.5552L47.1393 54.4296C46.704 56.2328 47.2606 56.3688 47.6134 56.8369H43.6494C43.2015 56.8369 42.6236 56.5086 42.4204 56.2928C41.4852 56.5774 41.4224 57.1805 39.4745 57.1461C37.5266 57.1117 35.3521 55.3713 35.534 53.0411C35.7159 50.7108 37.7522 49.3005 39.592 49.3005H44.1099L44.3671 48.2359C44.5316 47.5541 43.9973 47.5541 43.6734 47.5541H37.6315V47.5552ZM43.7472 51.2598H41.016C39.9006 51.2598 38.3602 52.603 39.6504 53.9347C40.9417 55.2665 43.2812 53.2596 43.7472 51.2598ZM59.2221 42.1218H55.3165C54.3114 42.1218 53.0288 42.1218 52.5137 44.2554L52.2991 45.1414H50.5527L49.9694 47.5552H51.7168L49.6908 55.9416C49.6034 56.3027 49.469 56.5392 49.0265 56.8374H52.2013C53.2724 56.8374 53.8487 55.8449 54.1912 54.4302L55.8512 47.5558H57.9105L58.4939 45.142H56.4346L56.5586 44.6307C56.6482 44.2609 56.9661 43.99 57.5244 43.9971L58.7659 44.0129L59.2221 42.1218ZM59.3597 47.5023C59.623 46.4125 59.9305 45.142 61.755 45.142H69.1002C71.7942 45.142 71.4365 46.6223 71.2245 47.5023L70.256 51.5122H62.4711L62.1777 52.7281C61.9844 53.5283 62.5224 54.0178 63.522 54.0178H69.6513L68.9697 56.8374H59.8628C57.1048 56.8374 57.3452 55.8427 57.6822 54.4504L59.3597 47.5023ZM63.0053 49.3016H66.6465L66.895 48.3265C66.9721 48.0272 67.0808 47.5558 66.3799 47.5558H64.1671C63.5898 47.5558 63.3587 47.9147 63.2626 48.2905L63.0053 49.3016ZM73.0211 45.1414H75.3076L76.0374 42.1218H80.2014L79.4716 45.1414H81.6019L81.0196 47.5552H78.8882L77.5674 53.0242C77.3276 54.0172 77.6357 54.4296 78.9106 54.4296L78.3283 56.8369H75.2694C72.4825 56.8369 72.9424 54.9305 73.1636 54.0172L74.7253 47.5552H72.4377L73.0211 45.1414ZM82.3508 47.5552L82.9342 45.1414H91.816C93.9807 45.1414 93.7131 46.7539 93.5197 47.5552L91.8586 54.4296C91.4222 56.2328 91.9793 56.3688 92.3322 56.8369H88.3687C87.9208 56.8369 87.3423 56.5086 87.1386 56.2928C86.204 56.5774 86.1411 57.1805 84.1927 57.1461C82.2459 57.1122 80.0703 55.3713 80.2527 53.0411C80.4352 50.7108 82.471 49.3005 84.3102 49.3005H88.8281L89.0854 48.2359C89.2498 47.5541 88.715 47.5541 88.3916 47.5541H82.3508V47.5552ZM88.4659 51.2598H85.7347C84.6199 51.2598 83.0795 52.603 84.3702 53.9347C85.6604 55.2665 88 53.2596 88.4659 51.2598Z"
        fill="white"
      />
      <path
        d="M96.2899 44.7662C96.7613 44.7662 97.189 44.9585 97.4987 45.2682C97.6577 45.4267 97.7838 45.6151 97.8698 45.8225C97.9559 46.0299 98.0002 46.2522 98.0002 46.4767C98.0002 46.7012 97.9559 46.9236 97.8698 47.131C97.7838 47.3383 97.6577 47.5267 97.4987 47.6853C97.3402 47.8442 97.1519 47.9703 96.9445 48.0564C96.7372 48.1424 96.5149 48.1867 96.2904 48.1867C96.0659 48.1867 95.8437 48.1424 95.6363 48.0564C95.429 47.9703 95.2407 47.8442 95.0821 47.6853L95.081 47.6847C94.9222 47.5262 94.7961 47.3378 94.7101 47.1305C94.6241 46.9232 94.5798 46.7009 94.5798 46.4764C94.5798 46.252 94.6241 46.0297 94.7101 45.8224C94.7961 45.6151 94.9222 45.4267 95.081 45.2682C95.2396 45.109 95.428 44.9828 95.6354 44.8966C95.8428 44.8105 96.0653 44.7661 96.2899 44.7662Z"
        fill="white"
      />
      <path
        d="M96.6939 46.3726H97.0429C97.1017 46.3748 97.1604 46.367 97.2166 46.3497C97.2582 46.3344 97.2904 46.3098 97.3117 46.2759C97.333 46.2421 97.3439 46.2055 97.3439 46.1661C97.3448 46.1391 97.3396 46.1122 97.3287 46.0875C97.3178 46.0627 97.3016 46.0407 97.2811 46.023C97.2396 45.9859 97.1735 45.9668 97.0817 45.9668H96.6944V46.3726H96.6939ZM96.5317 47.0571V45.8318H97.0746C97.1844 45.8318 97.2669 45.8433 97.3242 45.8652C97.3811 45.887 97.4258 45.9258 97.4597 45.9815C97.4936 46.0371 97.5114 46.101 97.5111 46.1661C97.5111 46.253 97.4832 46.3262 97.4269 46.3857C97.3707 46.4453 97.2838 46.4835 97.1664 46.4993C97.2013 46.5153 97.234 46.5357 97.2636 46.56C97.3117 46.6037 97.3565 46.6583 97.3991 46.7228L97.6116 47.056H97.4078L97.2456 46.8014C97.2094 46.7432 97.1702 46.6868 97.1281 46.6326C97.1056 46.6009 97.0779 46.5732 97.0462 46.5507C97.0236 46.5358 96.9987 46.5247 96.9725 46.5179C96.9425 46.5131 96.9121 46.5111 96.8818 46.5119H96.6939V47.056H96.5317V47.0571ZM95.0989 47.0571V45.8318H95.343L95.632 46.6993C95.6599 46.7801 95.679 46.8407 95.6905 46.8806C95.7041 46.8364 95.7265 46.7708 95.7565 46.6845L96.0488 45.8318H96.2673V47.0571H96.1105V46.0323L95.7555 47.0571H95.6091L95.2551 46.0143V47.0571H95.0989Z"
        fill="white"
      />
    </svg>
