<svg
      width="100"
      height="100"
      viewBox="0 0 100 100"
      fill="none"
      xmlns="http://www.w3.org/2000/svg"
    >
      <rect width="100" height="100" fill="#29007C" />
      <path
        d="M96.237 58.8894C96.237 57.4906 95.245 56.4663 93.8786 56.4663C92.5144 56.4663 91.5213 57.4906 91.5213 58.8894C91.5213 60.2859 92.5144 61.3085 93.8786 61.3085C95.245 61.3085 96.237 60.2842 96.237 58.8894ZM93.2589 59.0136V60.5963H92.7476V57.1064H94.0182C94.7627 57.1064 95.1043 57.4316 95.1043 58.0654C95.1043 58.4558 94.8404 58.7651 94.5005 58.8099V58.8247C94.7956 58.8718 94.904 59.1351 94.9647 59.6169C95.0112 59.929 95.0731 60.4703 95.1843 60.5974H94.5794C94.4387 60.2694 94.4529 59.8052 94.3445 59.4165C94.2548 59.1209 94.0971 59.0131 93.7583 59.0131H93.2618V59.0148L93.2589 59.0136ZM93.8928 58.5625C94.3893 58.5625 94.5312 58.2981 94.5312 58.0648C94.5312 57.7891 94.3893 57.5711 93.8928 57.5711H93.2589V58.5636H93.8928V58.5625ZM90.959 58.8894C90.959 57.166 92.3271 56.001 93.8763 56.001C95.43 56.001 96.7965 57.166 96.7965 58.8894C96.7965 60.6093 95.4306 61.7755 93.8763 61.7755C92.3271 61.7755 90.959 60.6093 90.959 58.8894Z"
        fill="#FF5A00"
      />
      <path
        d="M80.8484 61.2721L77.4851 57.5002L74.1512 61.2721H67.1362L73.9923 53.5694L67.1362 45.8643H74.3702L77.7676 49.6073L81.0368 45.8643H88.0177L81.1957 53.537L88.1125 61.2721H80.8484ZM53.6658 61.2721V37H67.1362V42.4102H59.3716V45.8643H67.1362V51.0703H59.3716V55.8483H67.1362V61.2721H53.6658Z"
        fill="#FF5A00"
      />
      <path
        d="M47.9809 37V46.9334H47.918C46.6599 45.4876 45.0875 44.9836 43.2642 44.9836C39.528 44.9836 36.7134 47.5253 35.7254 50.883C34.5985 47.1826 31.6925 44.9144 27.3843 44.9144C23.8847 44.9144 21.1223 46.4846 19.6793 49.0438V45.8638H12.447V42.4108H20.3404V37.0011H6V61.2721H12.447V51.0703H18.8729C18.675 51.8548 18.576 52.661 18.5784 53.4701C18.5784 58.5307 22.4457 62.087 27.3832 62.087C31.5336 62.087 34.271 60.1366 35.7175 56.586H30.1921C29.4453 57.6545 28.8779 57.97 27.3837 57.97C25.6518 57.97 24.1571 56.4583 24.1571 54.6685H35.4077C35.8957 58.689 39.0281 62.1557 43.3272 62.1557C45.1816 62.1557 46.8795 61.2437 47.9174 59.7031H47.9798V61.2755H53.6641V37.0011H47.9809V37ZM24.3364 51.1429C24.6957 49.6005 25.8913 48.5927 27.3837 48.5927C29.0271 48.5927 30.162 49.5693 30.4599 51.1429H24.3364ZM44.5313 57.5785C42.4368 57.5785 41.1351 55.627 41.1351 53.5887C41.1351 51.4096 42.2677 49.3162 44.5313 49.3162C46.8801 49.3162 47.8158 51.4107 47.8158 53.5887C47.8158 55.6531 46.825 57.5785 44.5313 57.5785Z"
        fill="white"
      />
    </svg>
