<svg
      width="100"
      height="100"
      viewBox="0 0 100 100"
      fill="none"
      xmlns="http://www.w3.org/2000/svg"
    >
      <rect width="100" height="100" fill="#1A39F3" />
      <g clip-path="url(#clip0_224_2)">
        
        <path
          d="M55.5746 68.0356H57.6076C58.4234 68.0356 59.0362 68.2858 59.4505 68.782C59.8647 69.2781 60.0718 70.0202 60.0718 71.004C60.0718 71.7673 59.9788 72.3864 59.7928 72.8528C59.6069 73.3193 59.3195 73.667 58.9221 73.8875C58.5248 74.108 58.0049 74.2183 57.3582 74.2183H55.5703V68.0356H55.5746ZM57.502 73.4296C58.0641 73.4296 58.4741 73.2387 58.7277 72.8571C58.9813 72.4754 59.1123 71.8563 59.1123 71.004C59.1123 70.2492 58.9897 69.6979 58.7446 69.3502C58.4995 68.9982 58.1064 68.8244 57.5738 68.8244H56.534V73.4338H57.502V73.4296Z"
          fill="white"
        />
        
        <path
          d="M64.7591 72.3439H61.627C61.6735 72.7425 61.8004 73.0479 62.0117 73.2514C62.2188 73.4592 62.5062 73.561 62.8697 73.561C63.3853 73.561 63.8038 73.3574 64.1208 72.9504L64.6069 73.4168C64.4378 73.6924 64.1926 73.9087 63.8757 74.0656C63.5586 74.2225 63.2078 74.2988 62.8274 74.2988C62.1723 74.2988 61.6566 74.0953 61.2931 73.6924C60.9254 73.2896 60.7437 72.7299 60.7437 72.0089C60.7437 71.2923 60.9296 70.7283 61.2973 70.317C61.6651 69.9099 62.1723 69.7021 62.819 69.7021C63.4276 69.7021 63.9052 69.9057 64.2476 70.3085C64.5899 70.7114 64.7632 71.2754 64.7632 72.0005V72.3439H64.7591ZM63.9348 71.657C63.9348 71.2753 63.8334 70.9743 63.6263 70.758C63.4192 70.5417 63.1402 70.4315 62.7809 70.4315C62.447 70.4315 62.1807 70.5418 61.9821 70.7665C61.7834 70.9913 61.6608 71.3093 61.6228 71.7206H63.9391V71.657H63.9348Z"
          fill="white"
        />
        
        <path
          d="M65.8962 74.019C65.7272 73.8282 65.6426 73.5441 65.6426 73.1667V67.6667H66.5133V73.1667C66.5133 73.349 66.5471 73.4805 66.6148 73.5568C66.6824 73.6331 66.7923 73.6713 66.9444 73.6713C67.067 73.6713 67.2192 73.6331 67.4009 73.5568L67.532 74.0614C67.3037 74.2268 67.0078 74.3073 66.6528 74.3073C66.3188 74.3031 66.0653 74.2099 65.8962 74.019Z"
          fill="white"
        />
        
        <path
          d="M68.3351 68.9729C68.2295 68.8711 68.1787 68.7354 68.1787 68.5657C68.1787 68.3961 68.2295 68.2605 68.3351 68.1587C68.4408 68.0569 68.5845 68.0103 68.7663 68.0103C68.948 68.0103 69.0917 68.0611 69.2016 68.1587C69.3115 68.2605 69.3664 68.3961 69.3664 68.5657C69.3664 68.7354 69.3115 68.8711 69.2016 68.9729C69.0917 69.0746 68.948 69.1213 68.7663 69.1213C68.5845 69.1213 68.4408 69.0746 68.3351 68.9729ZM68.3351 69.804H69.2058V74.2183H68.3351V69.804Z"
          fill="white"
        />
        
        <path
          d="M74.1427 69.804L72.452 74.2183H71.6785L69.9878 69.804H70.8839L72.0631 73.1751L73.2339 69.804H74.1427Z"
          fill="white"
        />
        
        <path
          d="M78.3904 72.3439H75.2584C75.3049 72.7425 75.4317 73.0479 75.6433 73.2514C75.85 73.4592 76.1377 73.561 76.5012 73.561C77.0169 73.561 77.4355 73.3574 77.7525 72.9504L78.2382 73.4168C78.0695 73.6924 77.8242 73.9087 77.5073 74.0656C77.1903 74.2225 76.8395 74.2988 76.4587 74.2988C75.8035 74.2988 75.288 74.0953 74.9245 73.6924C74.5568 73.2896 74.375 72.7299 74.375 72.0089C74.375 71.2923 74.561 70.7283 74.9287 70.317C75.2965 69.9099 75.8035 69.7021 76.4501 69.7021C77.0587 69.7021 77.5365 69.9057 77.8787 70.3085C78.2216 70.7114 78.3944 71.2754 78.3944 72.0005V72.3439H78.3904ZM77.5618 71.657C77.5618 71.2753 77.4608 70.9743 77.2534 70.758C77.0461 70.5417 76.7677 70.4315 76.4082 70.4315C76.0739 70.4315 75.8081 70.5418 75.6095 70.7665C75.4106 70.9913 75.288 71.3093 75.25 71.7206H77.5664V71.657H77.5618Z"
          fill="white"
        />
        
        <path
          d="M79.244 70.881C79.244 70.3806 79.2354 70.0202 79.2188 69.8039H80.0388C80.064 70.0414 80.0726 70.3 80.0726 70.5799V70.669H80.0979C80.2162 70.3678 80.4022 70.1346 80.6554 69.965C80.9093 69.7954 81.2096 69.7148 81.5558 69.7148C81.6489 69.7148 81.7332 69.7233 81.8097 69.7403V70.4484C81.7671 70.4357 81.6788 70.4314 81.5346 70.4314C81.2767 70.4314 81.0362 70.5078 80.8162 70.6562C80.5963 70.8046 80.4235 71.0082 80.2966 71.2668C80.1697 71.5213 80.1059 71.8054 80.1059 72.1107V74.2224H79.2354V70.881H79.244Z"
          fill="white"
        />
        
        <path
          d="M86.003 69.804L84.3756 74.3412C83.9822 75.431 83.3569 75.9738 82.4904 75.9738C82.3256 75.9738 82.1395 75.9484 81.9282 75.8933V75.2148C82.0505 75.2614 82.1987 75.2869 82.3675 75.2869C82.6552 75.2869 82.9004 75.1851 83.0991 74.9773C83.2978 74.7696 83.4878 74.4303 83.6699 73.9554L82.0339 69.8082H82.9682L84.0752 73.014L85.06 69.8082H86.003V69.804Z"
          fill="white"
        />

        
        <path
          d="M15.0233 35.0234C15.0233 36.6899 13.6749 38.0426 12.0138 38.0426C10.3527 38.0426 9.00439 36.6899 9.00439 35.0234C9.00439 33.3569 10.3527 32.0042 12.0138 32.0042C13.6749 32.0042 15.0233 33.3526 15.0233 35.0234Z"
          fill="white"
        />
        <path
          d="M12.1447 38.0427H11.8784C10.2892 38.0427 9 36.7493 9 35.1549V34.8878C9 33.2933 10.2892 32 11.8784 32H12.1447C13.7339 32 15.0231 33.2933 15.0231 34.8878V35.1549C15.0231 36.7493 13.7339 38.0427 12.1447 38.0427Z"
          fill="white"
        />
        <path
          fill-rule="evenodd"
          clip-rule="evenodd"
          d="M15.0275 57.7567V50.0349V50.0051V42.2875C15.0275 40.6252 13.6834 39.281 12.0307 39.281H12.0012C10.3443 39.281 9.00439 40.6295 9.00439 42.2875V49.7285C9.08617 48.2075 10.3421 46.9987 11.8786 46.9987H12.1448C13.7341 46.9987 15.0233 48.292 15.0233 49.8864V50.1536C15.0233 51.748 13.7341 53.0413 12.1448 53.0413H11.8786C10.3421 53.0413 9.08617 51.8325 9.00439 50.3115V57.7567C9.00439 59.419 10.3485 60.7633 12.0012 60.7633H12.0307C13.6834 60.7633 15.0233 59.419 15.0275 57.7567Z"
          fill="white"
        />

        
        <path
          d="M35.7892 60.7631H31.3892L26.334 46.4345V60.7631H20.1968V33.658H26.6045L35.7892 60.7631Z"
          fill="white"
        />
        <path
          d="M40.5781 33.658H46.9858V60.7631H40.8486V46.4345L35.7892 60.7631H31.3892L40.5781 33.658Z"
          fill="white"
        />
        <path
          d="M57.6368 41.4011H52.1548V60.7632H57.6368V41.4011Z"
          fill="white"
        />
        <path
          d="M63.7363 59.7965C62.8107 58.8932 62.3457 57.5872 62.3457 55.8868V32.0298H67.8278V56.0012C67.8278 56.9299 68.3942 57.3964 69.527 57.3964C70.1694 57.3964 70.9302 57.214 71.8051 56.8536L72.6167 59.7202C71.3825 60.6742 69.7467 61.1534 67.7136 61.1534C65.9849 61.1492 64.662 60.6997 63.7363 59.7965Z"
          fill="white"
        />
        <path
          d="M90.9861 53.0965H77.71C77.9425 54.2584 78.4243 55.1234 79.1553 55.6917C79.8909 56.2599 80.8843 56.544 82.1482 56.544C83.2553 56.544 84.2188 56.3617 85.0434 56.0012C85.8674 55.6408 86.6914 55.0217 87.5114 54.1439L90.4452 56.9342C89.697 58.1978 88.5348 59.2198 86.9539 59.9915C85.373 60.7676 83.6526 61.1534 81.8013 61.1534C78.7665 61.1534 76.3829 60.2714 74.6625 58.4989C72.9379 56.7306 72.0757 54.2838 72.0757 51.1586C72.0757 48.0079 72.9379 45.5315 74.6625 43.725C76.3869 41.9186 78.7539 41.0154 81.7634 41.0154C84.6461 41.0154 86.9034 41.9144 88.5387 43.7081C90.1748 45.5018 90.9901 47.974 90.9901 51.1247V53.0965H90.9861ZM85.5804 49.1868C85.5804 48.0503 85.2335 47.1556 84.5364 46.4941C83.8427 45.8368 82.8878 45.506 81.6791 45.506C80.5966 45.506 79.7095 45.8495 79.0157 46.5322C78.3226 47.215 77.8581 48.1776 77.6256 49.4158H85.5757V49.1868H85.5804Z"
          fill="white"
        />
        <path
          d="M54.8982 39.2809C53.216 39.2809 51.855 37.9112 51.855 36.2277C51.855 34.54 53.2202 33.1746 54.8982 33.1746C56.5805 33.1746 57.9415 34.5442 57.9415 36.2277C57.9415 37.9154 56.5762 39.2809 54.8982 39.2809Z"
          fill="white"
        />
      </g>
      <defs>
        <clipPath id="clip0_224_2">
          <rect
            width="82"
            height="44"
            fill="white"
            transform="translate(9 32)"
          />
        </clipPath>
      </defs>
    </svg>
