<svg
      width="100"
      height="100"
      viewBox="0 0 100 100"
      fill="none"
      xmlns="http://www.w3.org/2000/svg"
    >
      <rect width="100" height="100" fill="#FF0000" />
      <path
        d="M30.3187 25H38.0256C36.0095 33.8765 33.9781 42.7491 31.9493 51.6229C25.0609 51.6165 18.1725 51.6358 11.2842 51.6306C12.2717 49.8705 13.1491 48.0514 14.1007 46.2732C17.8946 46.2912 21.6884 46.2771 25.4823 46.2797C27.0961 39.1877 28.6921 32.0894 30.3187 25Z"
        fill="white"
      />
      <path
        d="M41.9526 25H59.1222C57.7697 27.4417 56.435 29.8936 55.0748 32.3328C55.0773 31.6833 55.2067 31.0325 55.117 30.3868C54.9851 29.6451 54.337 29.1263 53.6658 28.8701C52.4542 28.4076 51.0004 28.4153 49.8874 29.1365C48.3606 30.0666 47.6843 32.1726 48.4592 33.7996C49.1778 35.2267 50.2486 36.4386 51.3501 37.5813C52.6809 38.9251 54.1013 40.1818 55.6063 41.3271C55.8381 41.044 56.0136 40.7211 56.1276 40.374C56.5003 39.2876 56.736 38.159 56.9538 37.033C58.7277 37.5377 60.5004 38.0489 62.2744 38.5562C61.9401 41.222 60.8872 43.7675 59.4104 46.0004C60.9423 47.872 62.4806 49.7398 64.0112 51.6127C61.6839 51.6178 59.3579 51.6101 57.0319 51.6165C56.5285 51.0926 56.0456 50.5494 55.5423 50.0267C53.2009 51.1156 50.62 51.6486 48.0468 51.7318C45.0637 51.7754 41.9564 51.0952 39.5331 49.285C38.1651 47.9425 37.3569 45.9645 37.6015 44.0378C37.7898 42.4928 38.5468 41.0773 39.4831 39.8577C40.7012 38.2923 42.2177 36.974 43.8661 35.8787C42.0717 33.8739 40.8523 31.1747 41.1828 28.4435C41.4172 27.2905 41.6925 26.1465 41.9526 25ZM44.4989 42.7222C44.0762 43.3921 43.9596 44.2697 44.3196 44.9922C44.9395 46.2579 46.2818 47.1047 47.6818 47.1802C49.3456 47.284 50.9697 46.6845 52.3965 45.8748C50.7532 43.9302 49.1317 41.9676 47.473 40.0383C46.3958 40.8223 45.1982 41.5474 44.4989 42.7222Z"
        fill="white"
      />
      <path
        d="M63.0571 25H94.2596C93.6576 25.5803 93.0736 26.1799 92.4767 26.764C89.8856 26.7615 87.2957 26.7589 84.7058 26.7653C84.3805 27.0907 84.0513 27.411 83.7273 27.7376C86.3197 27.7402 88.9121 27.7351 91.5045 27.7402C90.9973 28.1975 90.5682 28.7766 90.0149 29.1596C87.4148 29.1865 84.8134 29.1686 82.2133 29.1673C81.8752 29.4875 81.5434 29.8155 81.2168 30.146C83.8374 30.1511 86.458 30.146 89.0786 30.1486C88.369 30.8621 87.6543 31.568 86.9396 32.2764C84.0782 32.279 81.2168 32.2828 78.3542 32.2738C76.7313 38.7201 75.1405 45.1741 73.5241 51.6229C71.0149 51.614 68.5058 51.6383 65.9979 51.6101C67.5131 45.1459 69.209 38.7253 70.8023 32.279C66.8945 32.2764 62.9854 32.2815 59.0775 32.2764C60.4083 29.8526 61.7148 27.4161 63.0571 25Z"
        fill="white"
      />
      <path
        d="M66.4031 61.9887C67.23 60.6862 68.7521 59.9843 70.2454 59.7982C71.6846 59.6392 73.205 59.7525 74.5139 60.4207C74.2061 61.2427 73.8916 62.0614 73.5923 62.8851C72.4609 62.3709 71.135 62.0614 69.9207 62.4589C69.2172 62.672 68.6405 63.4991 69.0227 64.2146C69.4708 64.9606 70.3249 65.3005 71.0386 65.7369C72.126 66.3205 73.205 67.1662 73.5466 68.4078C73.9017 69.8912 73.4333 71.5827 72.2647 72.5891C71.2703 73.4669 69.9444 73.8374 68.6506 73.9659H67.3349C66.1967 73.8509 65.0349 73.6327 64.0591 73.0018C64.3889 72.1899 64.7203 71.3797 65.0501 70.5678C66.2661 71.2241 67.6917 71.6114 69.0734 71.3577C69.782 71.2241 70.5008 70.6828 70.5126 69.903C70.5667 69.0996 69.8514 68.5752 69.2341 68.2183C68.1822 67.6297 67.0474 67.0597 66.3422 66.0414C65.4966 64.854 65.6556 63.1828 66.4031 61.9887Z"
        fill="white"
      />
      <path
        d="M76.8783 61.9819C77.7087 60.6794 79.2308 59.9826 80.7241 59.7965C82.1616 59.6392 83.6769 59.7576 84.9858 60.419C84.678 61.241 84.3618 62.0597 84.0641 62.8851C83.0291 62.4098 81.8572 62.1341 80.7241 62.3591C80.1406 62.4809 79.5386 62.8597 79.4033 63.4754C79.2815 63.9355 79.5267 64.399 79.8751 64.6899C80.746 65.4375 81.869 65.8097 82.7433 66.5539C83.4046 67.0986 83.939 67.8428 84.0811 68.7021C84.2891 70.0671 83.8629 71.5573 82.8296 72.5011C81.8335 73.4399 80.4619 73.8306 79.131 73.9659H77.8119C76.6703 73.8509 75.5068 73.6327 74.5276 73.0018C74.8591 72.1899 75.1905 71.3797 75.522 70.5678C76.7413 71.2274 78.1721 71.6131 79.5572 71.356C80.2573 71.2207 80.9659 70.6828 80.9828 69.9132C81.042 69.1148 80.3385 68.5837 79.7229 68.2285C78.671 67.6364 77.5328 67.0698 76.8225 66.0515C75.9651 64.8624 76.1241 63.1811 76.8783 61.9819Z"
        fill="white"
      />
      <path
        d="M10.6247 59.9589C13.361 59.9589 16.0957 59.9521 18.832 59.9623C18.6612 60.8029 18.5005 61.6436 18.3348 62.4842C16.5963 62.4859 14.8594 62.4842 13.1226 62.4842C12.9399 63.4687 12.715 64.4446 12.5696 65.4342C14.2032 65.4105 15.8386 65.4308 17.474 65.424C17.3201 66.2511 17.1594 67.0783 17.0021 67.9054C15.3617 67.9121 13.7196 67.9054 12.0774 67.9088C11.8677 69.0218 11.6394 70.1297 11.4517 71.246C13.2883 71.2291 15.1249 71.2426 16.9616 71.2393C16.8043 72.0816 16.647 72.924 16.488 73.7646C13.6587 73.7663 10.8293 73.7663 8 73.7646C8.86927 69.1621 9.75206 64.5614 10.6247 59.9589Z"
        fill="white"
      />
      <path
        d="M20.1309 59.9572C21.1761 59.9588 22.2195 59.9572 23.2647 59.9588C23.7822 61.5776 24.3183 63.1946 24.7259 64.8472C24.9153 64.7254 25.0015 64.514 25.1064 64.3245C25.8877 62.8225 26.8314 61.4135 27.7006 59.9622C28.8845 59.9538 30.0683 59.9588 31.2538 59.9588C29.5728 62.2203 27.8884 64.4784 26.2039 66.7349C27.08 69.0809 27.9712 71.4202 28.8506 73.7646C27.7953 73.7612 26.74 73.7747 25.6848 73.7561C25.1216 72.0461 24.5145 70.3478 24.0105 68.6192C23.0076 70.3377 21.9878 72.0494 20.9613 73.7544C19.7673 73.7781 18.5717 73.7595 17.3777 73.7646C19.0959 71.4016 20.8531 69.0657 22.5544 66.6892C21.7291 64.4531 20.9393 62.2017 20.1309 59.9572Z"
        fill="white"
      />
      <path
        d="M32.862 60.2177C34.5413 59.8794 36.2849 59.739 37.988 59.969C39.3764 60.1619 40.8291 60.8926 41.3838 62.2542C42.1077 64.1436 41.3619 66.4389 39.74 67.6246C38.152 68.8002 36.0566 69.0015 34.1439 68.7985C33.8277 70.4544 33.5165 72.1104 33.2002 73.7663C32.2346 73.7697 31.2689 73.7562 30.3049 73.7731C31.1302 69.2501 32.013 64.7356 32.862 60.2177ZM35.3802 62.3067C35.1214 63.6683 34.8559 65.0299 34.6005 66.3932C35.7099 66.5878 36.9834 66.5319 37.8628 65.742C38.6763 65.0485 38.9942 63.6649 38.2704 62.8022C37.5195 62.0495 36.3424 62.2001 35.3802 62.3067Z"
        fill="white"
      />
      <path
        d="M44.4837 60.2177C45.9449 59.9166 47.445 59.8117 48.9332 59.8794C50.2269 59.9623 51.6137 60.2735 52.5523 61.2309C53.4655 62.1697 53.5501 63.6632 53.0867 64.8371C52.5963 66.0668 51.4226 66.8838 50.1931 67.261C50.8594 67.6314 51.2619 68.3215 51.4006 69.0556C51.7118 70.6134 51.6475 72.2271 52.0568 73.768C51.0404 73.7613 50.024 73.7697 49.0093 73.763C48.7505 72.5417 48.7032 71.2917 48.5544 70.0553C48.4783 69.4616 48.2686 68.7884 47.6919 68.5025C47.1152 68.2403 46.4624 68.3418 45.8502 68.3198C45.5035 70.1348 45.1636 71.9497 44.8219 73.7647C43.8411 73.7697 42.8602 73.7596 41.881 73.7714C42.73 69.2501 43.6144 64.7356 44.4837 60.2177ZM47.0019 62.3134C46.7854 63.5803 46.5165 64.8371 46.2814 66.1006C47.3519 66.104 48.5577 66.2106 49.4439 65.4798C50.2523 64.8794 50.6159 63.5161 49.8498 62.7431C49.0803 62.0699 47.9422 62.1375 47.0019 62.3134Z"
        fill="white"
      />
      <path
        d="M56.4709 59.9589C59.2038 59.9573 61.9385 59.9589 64.6731 59.9589C64.5107 60.8013 64.3467 61.6436 64.181 62.4843C62.4424 62.486 60.7039 62.4843 58.9654 62.486C58.7776 63.4654 58.5832 64.443 58.3971 65.4224C60.0359 65.4258 61.6763 65.4241 63.3185 65.4241C63.1646 66.2529 63.0056 67.08 62.8466 67.9071C61.2045 67.9088 59.564 67.9088 57.9236 67.9071C57.7088 69.0167 57.4957 70.128 57.2877 71.2393C59.126 71.2376 60.966 71.2376 62.806 71.2393C62.6471 72.0817 62.4932 72.924 62.3308 73.7664C59.5015 73.7647 56.6721 73.7664 53.8445 73.7664C54.7154 69.1622 55.5965 64.5614 56.4709 59.9589Z"
        fill="white"
      />
    </svg>
