<svg
      width="100"
      height="100"
      viewBox="0 0 100 100"
      fill="none"
      xmlns="http://www.w3.org/2000/svg"
    >
      <rect width="100" height="100" fill="white" />
      <path
        fill-rule="evenodd"
        clip-rule="evenodd"
        d="M9.4831 39.5857H11.8312V53.6279C11.8312 54.7017 12.3782 55.1367 13.5703 55.1367H95.0001V56.9976H11.6615C11.0547 56.9976 9.4831 56.9032 9.4831 55.1043V39.5857ZM11.9793 57.6736H95.0001V59.5342H5.77848C4.45619 59.5342 3.88 59.0271 3.88 57.742V39.5857H8.84336V54.1138C8.84336 56.988 9.34602 57.6736 11.9793 57.6736ZM19.4454 47.8634C19.4669 47.8634 19.4991 47.8654 19.542 47.8699C19.587 47.8741 19.6194 47.8761 19.6406 47.8761C20.0291 47.8761 20.3252 47.7648 20.5291 47.5395C20.7329 47.3166 20.8337 46.9941 20.8337 46.5736C20.8337 46.1381 20.7372 45.8162 20.5441 45.6082C20.3532 45.4024 20.0506 45.2972 19.6406 45.2972C19.6194 45.2972 19.587 45.2992 19.542 45.3034C19.4991 45.3081 19.4669 45.3101 19.4454 45.3101V47.8634ZM17.6731 53.0602V43.8833H19.5765C20.5871 43.8833 21.3381 44.1021 21.8273 44.5397C22.3187 44.9773 22.5632 45.6471 22.5632 46.5482C22.5632 47.4084 22.3272 48.0759 21.8531 48.5499C21.379 49.0265 20.7157 49.2645 19.8596 49.2645C19.7525 49.2645 19.6686 49.2645 19.6129 49.2624C19.555 49.2602 19.5011 49.2559 19.4519 49.2517L19.4454 53.0602H17.6731ZM24.7433 50.0242H25.9642C25.8376 49.3826 25.726 48.711 25.6251 48.0092C25.5243 47.3078 25.4364 46.5674 25.3612 45.7887C25.2689 46.4751 25.1703 47.1725 25.0674 47.8784C24.9643 48.5844 24.857 49.2989 24.7433 50.0242ZM22.2993 53.0602L24.4363 43.8833H26.3547L28.3911 53.0602H26.5606L26.2538 51.4511H24.4106L24.1275 53.0602H22.2993ZM32.2618 49.5476L33.1223 50.4962C33.2059 50.2409 33.2683 49.9533 33.3068 49.6315C33.3475 49.3117 33.367 48.9299 33.367 48.49C33.367 47.5027 33.2489 46.7561 33.0129 46.2563C32.7746 45.7565 32.427 45.5051 31.9657 45.5051C31.4871 45.5051 31.1331 45.7628 30.9036 46.2755C30.6739 46.7883 30.5581 47.58 30.5581 48.6488C30.5581 49.565 30.6762 50.2646 30.9121 50.7451C31.1503 51.2235 31.4936 51.4639 31.9464 51.4639C31.9851 51.4639 32.0258 51.4619 32.073 51.4574C32.1182 51.4532 32.1718 51.4467 32.2298 51.4382L31.2684 50.3695L32.2618 49.5476ZM35.2721 52.865L34.2789 53.7276L33.4164 52.7771C33.2252 52.9037 33.0107 52.9958 32.7725 53.0582C32.5366 53.1184 32.266 53.1484 31.9657 53.1484C30.9465 53.1484 30.1569 52.7279 29.5927 51.8846C29.0282 51.0433 28.7471 49.8589 28.7471 48.3333C28.7471 46.9174 29.0347 45.8011 29.6077 44.9861C30.1826 44.1705 30.968 43.763 31.9657 43.763C32.9937 43.763 33.7874 44.1835 34.3517 45.0224C34.9161 45.8633 35.1972 47.0522 35.1972 48.5908C35.1972 49.3461 35.1263 49.9897 34.9825 50.5242C34.8409 51.0585 34.6222 51.4961 34.3282 51.8352L35.2721 52.865ZM42.0076 43.8833V49.6465C42.0076 50.3525 41.9861 50.8523 41.9454 51.1463C41.9024 51.4424 41.8338 51.6871 41.7374 51.8781C41.5142 52.32 41.1944 52.644 40.7718 52.8563C40.3511 53.0689 39.8104 53.1741 39.1475 53.1741C38.4844 53.1741 37.9416 53.0689 37.5168 52.8563C37.0896 52.644 36.7678 52.32 36.5511 51.8781C36.4502 51.6826 36.3795 51.4339 36.3366 51.1376C36.2959 50.8395 36.2742 50.3437 36.2742 49.6465V49.3763V43.8833H38.1045V49.7925C38.1045 50.5412 38.1818 51.0263 38.3341 51.2407C38.4864 51.4574 38.757 51.5648 39.1475 51.5648C39.5444 51.5648 39.8189 51.4554 39.9671 51.2343C40.1152 51.0155 40.1901 50.5349 40.1901 49.7925V43.8833H42.0076ZM43.3959 53.0602V43.8833H47.2558V45.5802H45.1682V47.4343H47.0608V49.1186H45.1682V51.2687H47.2558V53.0602H43.3959ZM49.3545 53.0602V45.5802H47.9533V43.8833H52.5965V45.5802H51.1956V53.0602H49.3545ZM53.5043 53.0602V43.8833H57.3643V45.5802H55.277V47.4343H57.1694V49.1186H55.277V51.2687H57.3643V53.0602H53.5043ZM61.6645 53.0602L60.9413 51.1936C60.8708 51.0005 60.8039 50.7901 60.7437 50.5627C60.6841 50.333 60.6302 50.0928 60.583 49.8417C60.5379 50.0971 60.4866 50.3395 60.4326 50.5669C60.3772 50.7964 60.3212 51.0048 60.2636 51.1936L59.6347 53.0602H57.5468L59.671 48.4149L57.7356 43.8833H59.6581L60.3512 45.812C60.3875 45.9173 60.4306 46.0588 60.4757 46.2346C60.5229 46.4108 60.5747 46.6379 60.6348 46.9195C60.6841 46.681 60.7354 46.4663 60.7847 46.2776C60.8339 46.0889 60.8858 45.9323 60.935 45.8053L61.6153 43.8833H63.5077L61.5764 48.4149L63.6513 53.0602H61.6645ZM65.8055 47.8634C65.8268 47.8634 65.859 47.8654 65.902 47.8699C65.9471 47.8741 65.9798 47.8761 66.001 47.8761C66.3893 47.8761 66.6854 47.7648 66.8891 47.5395C67.0929 47.3166 67.194 46.9941 67.194 46.5736C67.194 46.1381 67.0971 45.8162 66.9042 45.6082C66.7134 45.4024 66.4106 45.2972 66.001 45.2972C65.9798 45.2972 65.9471 45.2992 65.902 45.3034C65.859 45.3081 65.8268 45.3101 65.8055 45.3101V47.8634ZM64.0334 53.0602V43.8833H65.9367C66.9472 43.8833 67.698 44.1021 68.1874 44.5397C68.6789 44.9773 68.9231 45.6471 68.9231 46.5482C68.9231 47.4084 68.6872 48.0759 68.2133 48.5499C67.7389 49.0265 67.0758 49.2645 66.2198 49.2645C66.1125 49.2645 66.0285 49.2645 65.973 49.2624C65.9149 49.2602 65.8615 49.2559 65.8118 49.2517L65.8055 53.0602H64.0334ZM71.6632 47.8634C71.685 47.8634 71.7192 47.8654 71.7664 47.8699C71.8156 47.8741 71.8504 47.8761 71.8716 47.8761C72.2688 47.8761 72.569 47.7648 72.7686 47.5437C72.9703 47.3208 73.0709 46.9941 73.0709 46.5607C73.0709 46.121 72.9786 45.8011 72.7945 45.6C72.6094 45.3977 72.316 45.2972 71.9079 45.2972C71.8457 45.2972 71.7965 45.2992 71.7643 45.3013C71.7301 45.3034 71.7 45.3055 71.67 45.3101L71.6632 47.8634ZM69.8911 53.0602V43.8833H71.7965C72.8438 43.8833 73.6033 44.0891 74.0731 44.4992C74.5449 44.9109 74.7813 45.5652 74.7813 46.4663C74.7813 47.1211 74.661 47.6469 74.4204 48.0414C74.1783 48.4384 73.8159 48.7152 73.3285 48.874L75.0903 53.0602H73.159L71.6632 49.2645V53.0602H69.8911ZM75.8001 53.0602V43.8833H79.6606V45.5802H77.5727V47.4343H79.4651V49.1186H77.5727V51.2687H79.6606V53.0602H75.8001ZM80.6151 52.7406V50.835C80.8448 51.037 81.0724 51.1871 81.2933 51.2879C81.5167 51.3888 81.7417 51.4382 81.9668 51.4382C82.2784 51.4382 82.5205 51.3566 82.6988 51.1936C82.8772 51.0305 82.9669 50.8073 82.9669 50.5262C82.9669 50.1787 82.7268 49.8012 82.2436 49.3955C82.1088 49.2817 82.0077 49.1938 81.9414 49.1314C81.3814 48.6273 80.9951 48.1767 80.7847 47.7755C80.5767 47.3762 80.4715 46.9236 80.4715 46.415C80.4715 45.6233 80.695 44.984 81.1408 44.4946C81.5872 44.0077 82.171 43.763 82.8917 43.763C83.1473 43.763 83.3983 43.7993 83.6471 43.8724C83.8981 43.9455 84.1599 44.0611 84.4368 44.2156V45.8359C84.1148 45.6814 83.8638 45.574 83.686 45.516C83.5077 45.4579 83.349 45.4278 83.2116 45.4278C82.9477 45.4278 82.731 45.5118 82.5635 45.6772C82.3961 45.8421 82.3126 46.0588 82.3126 46.3268C82.3126 46.5607 82.3748 46.78 82.5013 46.9837C82.6278 47.1875 82.9197 47.4877 83.3812 47.8848C83.9971 48.4149 84.3937 48.8525 84.57 49.2023C84.7458 49.5541 84.8339 49.9747 84.8339 50.4703C84.8339 51.3051 84.5975 51.9638 84.1257 52.4488C83.6554 52.9316 83.012 53.1741 82.199 53.1741C81.89 53.1741 81.6023 53.1376 81.3405 53.0667C81.0786 52.9958 80.8386 52.8865 80.6151 52.7406ZM85.5572 52.7406V50.835C85.7863 51.037 86.0139 51.1871 86.2348 51.2879C86.4583 51.3888 86.6833 51.4382 86.9088 51.4382C87.2199 51.4382 87.462 51.3566 87.6404 51.1936C87.8182 51.0305 87.9089 50.8073 87.9089 50.5262C87.9089 50.1787 87.6684 49.8012 87.1857 49.3955C87.0504 49.2817 86.9493 49.1938 86.8829 49.1314C86.3229 48.6273 85.9367 48.1767 85.7262 47.7755C85.5183 47.3762 85.413 46.9236 85.413 46.415C85.413 45.6233 85.636 44.984 86.0824 44.4946C86.5288 44.0077 87.1126 43.763 87.8332 43.763C88.0889 43.763 88.3398 43.7993 88.5887 43.8724C88.8401 43.9455 89.1014 44.0611 89.3783 44.2156V45.8359C89.0568 45.6814 88.8054 45.574 88.6275 45.516C88.4497 45.4579 88.2905 45.4278 88.1531 45.4278C87.8892 45.4278 87.6725 45.5118 87.5051 45.6772C87.3376 45.8421 87.2541 46.0588 87.2541 46.3268C87.2541 46.5607 87.3163 46.78 87.4428 46.9837C87.5693 47.1875 87.8612 47.4877 88.3227 47.8848C88.9386 48.4149 89.3358 48.8525 89.5115 49.2023C89.6873 49.5541 89.7754 49.9747 89.7754 50.4703C89.7754 51.3051 89.5395 51.9638 89.0672 52.4488C88.5975 52.9316 87.9535 53.1741 87.1406 53.1741C86.8316 53.1741 86.5438 53.1376 86.2825 53.0667C86.0202 52.9958 85.7801 52.8865 85.5572 52.7406ZM90.9539 53.3219V51.8527H91.3982L91.6647 52.8551L91.9281 51.8527H92.373V53.3219H92.0977V52.1655L91.8058 53.3219H91.5201L91.2292 52.1655V53.3219H90.9539ZM92.6659 53.3219V53.0406H92.9474V53.3219H92.6659ZM93.2388 53.3219V51.8527H93.8636C94.0207 51.8527 94.1342 51.8661 94.2058 51.8925C94.2768 51.9188 94.3338 51.9656 94.3769 52.033C94.4194 52.1007 94.4406 52.1776 94.4406 52.2647C94.4406 52.3747 94.4085 52.466 94.3437 52.5379C94.2789 52.6094 94.1819 52.655 94.0528 52.6734C94.1171 52.7111 94.17 52.752 94.212 52.7969C94.2535 52.8417 94.3094 52.9211 94.3805 53.0353L94.5599 53.3219H94.2052L93.9906 53.0021C93.9144 52.8879 93.8625 52.816 93.8345 52.7862C93.8065 52.7566 93.777 52.7364 93.7454 52.7251C93.7137 52.7141 93.664 52.7086 93.5955 52.7086H93.5359V53.3219H93.2388ZM93.5359 52.4739H93.7552C93.8973 52.4739 93.9864 52.4681 94.0222 52.4561C94.0575 52.4444 94.085 52.4233 94.1052 52.3939C94.1249 52.3645 94.1352 52.3279 94.1352 52.2838C94.1352 52.2341 94.1218 52.1944 94.0953 52.164C94.0694 52.1337 94.0316 52.1144 93.9833 52.1063C93.9595 52.1031 93.8874 52.1015 93.7671 52.1015H93.5359V52.4739ZM94.7185 53.3219V53.0406H95.0001V53.3219H94.7185Z"
        fill="#4A3F74"
      />
    </svg>
