<svg
      width="100"
      height="100"
      viewBox="0 0 100 100"
      fill="none"
      xmlns="http://www.w3.org/2000/svg"
    >
      <rect width="100" height="100" fill="#320104" />
      <path
        d="M50.576 89.0966C50.576 89.0966 31.9129 81.0952 26.1445 76.5946C20.0366 71.5932 17.1522 64.7588 17.1522 56.9241V17.9167C31.9129 10.082 50.576 10.7487 50.576 10.7487C50.576 10.7487 69.239 10.082 84 17.9167V56.7574C84 64.592 81.1158 71.4269 75.0079 76.4278C69.239 81.0952 50.576 89.0966 50.576 89.0966ZM19.8669 56.9241C19.8669 64.2589 22.5815 70.26 27.8409 74.4275C32.5918 78.2614 46.6738 84.4292 50.576 86.0961C54.4786 84.4292 68.7303 78.0946 73.3114 74.4275C78.5706 70.26 81.2855 64.0921 81.2855 56.9241V18.5836C61.6045 16.7499 38.1905 17.7501 19.8669 34.4199V56.9241Z"
        fill="#FFB406"
      />
      <path
        d="M69.4087 51.4219C71.9534 52.9224 72.9714 53.9226 73.1411 55.7562C73.1411 57.7565 71.7841 58.9235 69.5784 58.9235C67.7122 58.9235 65.5065 57.9233 63.9793 56.5896V61.924C65.8455 62.9242 68.0512 63.7576 70.4267 63.7576C76.195 63.7576 78.91 59.7569 78.91 56.0897C79.0797 52.7557 78.0617 50.0887 73.1411 47.2549C70.9354 45.9212 69.2389 45.0878 69.2389 43.0874C69.2389 41.0871 71.1051 40.2532 72.6324 40.2532C74.6683 40.2532 76.7043 41.4202 77.892 42.5871V37.5862C76.874 36.7528 74.6683 35.5859 71.4446 35.7526C67.5425 35.9194 63.4706 38.5864 63.4706 43.2537C63.6398 46.421 64.6578 48.755 69.4087 51.4219ZM49.3881 63.4245C49.8974 63.5913 50.7456 63.7576 52.1031 63.7576C58.7197 63.7576 62.4526 57.9233 62.4526 49.5884C62.4526 41.0871 58.5499 35.9194 51.5938 35.9194C48.3701 35.9194 45.8254 36.586 43.6197 37.9198V75.5934H49.3881V63.4245ZM49.3881 40.7535C49.8974 40.5868 50.7456 40.2532 51.4241 40.2532C54.8175 40.2532 56.175 42.9207 56.175 49.4216C56.175 55.7562 54.478 58.7567 51.0851 58.7567C50.2364 58.7567 49.5579 58.59 49.2184 58.4237V40.7535H49.3881ZM31.5733 63.7576C35.1364 63.7576 38.1904 62.9242 40.3961 61.4242V36.2525H34.4579V58.0901C33.779 58.59 32.9307 58.7567 31.743 58.7567C29.0286 58.7567 28.6891 56.2565 28.6891 54.756V36.2525H22.7509V54.4229C22.7509 60.5908 25.8049 63.7576 31.5733 63.7576ZM71.1051 86.2618V90.0962H71.7841V88.5957H71.9534L72.9714 90.0962H73.8201C73.8201 90.0962 72.8021 88.5957 72.6324 88.429C73.1411 88.2622 73.4806 87.9291 73.4806 87.4288C73.4806 86.9289 73.1411 86.2618 72.1231 86.2618H71.1051ZM72.1231 86.7622C72.6324 86.7622 72.8021 87.0957 72.8021 87.262C72.8021 87.5956 72.6324 87.9291 71.9534 87.9291H71.7841V86.7622H72.1231Z"
        fill="#FFB406"
      />
      <path
        d="M74.8406 88.098C74.8406 89.4317 73.6529 90.5987 72.2955 90.5987C70.9385 90.5987 69.7508 89.4317 69.7508 88.098C69.7508 86.7642 70.9385 85.5973 72.2955 85.5973C73.8227 85.5973 74.8406 86.7642 74.8406 88.098ZM72.2955 84.9307C70.599 84.9307 69.0718 86.2644 69.0718 88.098C69.0718 89.7648 70.4292 91.2653 72.2955 91.2653C73.9924 91.2653 75.5191 89.9315 75.5191 88.098C75.5191 86.4312 73.9924 84.9307 72.2955 84.9307Z"
        fill="#FFB406"
      />
    </svg>
