<svg width="5682" height="976" viewBox="0 0 5682 976" fill="none" xmlns="http://www.w3.org/2000/svg">
<rect x="1" width="928" height="928" rx="220" fill="url(#paint0_linear_113_298)"/>
<g filter="url(#filter0_d_113_298)">
<path d="M649.937 720.733C557.524 720.758 465.504 721.475 373.504 720.449C335.032 720.021 306.361 700.321 287.595 666.74C279.163 651.652 275.197 635.375 275.343 618.038C275.506 598.615 275.368 579.189 275.361 559.763C275.361 558.677 275.361 557.59 275.361 556.173C273.555 556.173 272.039 556.173 270.523 556.173C234.874 556.173 199.224 556.24 163.576 556.108C157.41 556.085 151.503 554.533 148.303 548.426C145.082 542.279 145.264 536.03 148.793 530.034C152.136 524.354 157.764 523.25 163.693 523.247C232.032 523.211 300.372 523.224 368.712 523.224C380.095 523.224 391.479 523.224 403.267 523.224C403.267 528.928 403.267 534.372 403.267 539.816C403.267 553.752 403.265 567.687 403.267 581.622C403.268 589.468 405.795 592.559 413.512 593.895C415.299 594.204 417.162 594.135 418.989 594.135C481.552 594.147 544.114 594.158 606.677 594.109C609.453 594.107 612.306 593.856 614.988 593.184C619.732 591.994 622.236 588.538 622.237 583.623C622.25 504.515 622.243 425.407 622.234 346.299C622.234 346.034 622.145 345.769 622.053 345.259C549.316 345.259 476.543 345.259 403.518 345.259C403.518 357.457 403.518 369.744 403.518 382.31C404.987 382.31 406.357 382.31 407.728 382.31C458.454 382.312 509.18 382.313 559.906 382.316C561.879 382.316 563.855 382.27 565.824 382.364C575.17 382.811 581.621 389.226 581.634 398.557C581.699 445.993 581.697 493.43 581.613 540.867C581.596 550.588 575.695 556.171 566.017 556.172C540.09 556.176 488.798 556.19 462.871 556.163C454.736 556.155 450.189 553.307 448.536 547.151C448.109 545.561 448.093 543.828 448.09 542.161C448.061 523.324 448.072 504.487 448.072 485.213C445.793 485.213 443.727 485.213 441.661 485.213C312.169 485.215 208.041 485.21 78.548 485.246C73.4954 485.247 68.6948 484.555 64.7978 481.13C59.7363 476.681 57.7405 471.107 59.8036 464.515C62.1287 457.086 67.4271 452.845 74.7395 452.318C76.1418 452.217 77.5563 452.277 78.9652 452.277C215.503 452.276 326.676 452.339 463.215 452.17C475.543 452.155 483.156 459.609 482.851 471.856C482.427 488.844 482.744 505.85 482.744 523.036C495.674 523.036 533.667 523.036 546.566 523.036C546.566 487.237 546.566 451.423 546.566 415.038C545.079 415.038 543.454 415.038 541.829 415.038C414.027 415.043 286.225 415.046 158.423 415.054C149.311 415.054 142.936 411.398 140.366 404.659C136.138 393.569 143.84 382.629 156.244 382.34C163.989 382.16 171.743 382.311 179.492 382.312C210.351 382.314 241.209 382.316 272.068 382.319C273.035 382.319 274.003 382.319 275.371 382.319C275.371 380.739 275.368 379.379 275.372 378.019C275.427 357.188 275.115 336.347 275.623 315.526C276.392 284.031 290.379 258.817 314.194 238.856C328.176 227.136 344.42 219.859 362.466 216.894C366.47 216.236 370.607 216.19 374.682 216.188C466.271 216.142 557.863 215.721 649.448 216.314C694.221 216.604 737.477 247.611 748.015 297.761C749.36 304.163 749.838 310.855 749.846 317.413C749.958 416.791 749.816 516.169 750 615.547C750.047 640.841 742.266 663.091 726.194 682.446C707.772 704.63 683.965 716.925 655.359 720.11C653.684 720.296 652.012 720.517 649.937 720.733ZM321.613 289.316C316.543 298.8 314.66 309.075 314.572 319.662C314.409 339.508 314.522 359.357 314.52 379.205C314.52 380.15 314.52 381.096 314.52 382.082C331.437 382.082 347.971 382.082 364.576 382.082C364.576 364.684 364.479 347.523 364.608 330.363C364.707 317.127 373.42 308.69 386.651 308.69C470.21 308.687 553.769 308.686 637.328 308.69C649.876 308.69 659.327 318.153 659.329 330.804C659.344 422.723 659.309 514.643 659.368 606.562C659.377 621.028 648.671 630.564 635.289 630.556C553.139 630.505 470.99 630.534 388.84 630.514C376.008 630.511 366.684 622.783 365.312 610.139C364.421 601.928 364.688 593.582 364.6 585.294C364.499 575.656 364.577 566.016 364.577 556.485C347.629 556.485 331.097 556.485 314.523 556.485C314.523 577.631 314.394 598.463 314.558 619.294C314.731 641.146 324.135 658.229 341.711 671.138C354.752 680.716 369.626 682.681 385.157 682.685C469.138 682.711 553.12 682.824 637.101 682.781C643.821 682.778 650.597 682.215 657.251 681.25C687.209 676.905 710.291 650.518 710.309 620.501C710.369 519.432 710.323 418.363 710.296 317.294C710.295 313.922 710.416 310.49 709.868 307.188C706.945 289.583 697.232 276.402 682.729 266.455C670.159 257.833 656.01 255.762 641.121 255.865C597.02 256.171 552.916 256.296 508.813 256.278C471.476 256.264 434.138 255.895 396.801 255.811C387.231 255.789 377.514 255.274 368.121 256.685C347.691 259.753 333.117 271.997 321.613 289.316Z" fill="white"/>
</g>
<path d="M5166.45 975.182V248.311H5310.99V337.105H5317.53C5323.96 322.879 5333.25 308.424 5345.41 293.74C5357.8 278.826 5373.86 266.436 5393.59 256.571C5413.55 246.475 5438.33 241.427 5467.93 241.427C5506.48 241.427 5542.04 251.523 5574.62 271.714C5607.2 291.675 5633.24 321.847 5652.75 362.228C5672.25 402.381 5682 452.743 5682 513.316C5682 572.282 5672.48 622.071 5653.44 662.682C5634.62 703.064 5608.92 733.694 5576.34 754.573C5543.99 775.223 5507.74 785.548 5467.59 785.548C5439.14 785.548 5414.93 780.844 5394.97 771.437C5375.24 762.03 5359.06 750.214 5346.44 735.989C5333.82 721.534 5324.19 706.964 5317.53 692.28H5313.06V975.182H5166.45ZM5309.96 512.627C5309.96 544.061 5314.32 571.479 5323.04 594.882C5331.76 618.285 5344.38 636.526 5360.9 649.604C5377.42 662.453 5397.49 668.877 5421.13 668.877C5444.99 668.877 5465.18 662.338 5481.7 649.26C5498.22 635.952 5510.72 617.597 5519.21 594.194C5527.93 570.561 5532.29 543.372 5532.29 512.627C5532.29 482.112 5528.04 455.267 5519.56 432.093C5511.07 408.92 5498.56 390.794 5482.04 377.716C5465.52 364.637 5445.22 358.098 5421.13 358.098C5397.26 358.098 5377.07 364.408 5360.55 377.027C5344.26 389.647 5331.76 407.543 5323.04 430.717C5314.32 453.89 5309.96 481.194 5309.96 512.627Z" fill="#111111"/>
<path d="M4902.39 776.944V248.311H5049V776.944H4902.39ZM4976.04 180.167C4954.24 180.167 4935.54 172.939 4919.94 158.484C4904.56 143.8 4896.88 126.248 4896.88 105.828C4896.88 85.6367 4904.56 68.3139 4919.94 53.8591C4935.54 39.1748 4954.24 31.8326 4976.04 31.8326C4997.83 31.8326 5016.42 39.1748 5031.79 53.8591C5047.39 68.3139 5055.19 85.6367 5055.19 105.828C5055.19 126.248 5047.39 143.8 5031.79 158.484C5016.42 172.939 4997.83 180.167 4976.04 180.167Z" fill="#111111"/>
<path d="M4444.22 471.328V776.944H4297.61V72.0996H4440.09V341.579H4446.28C4458.21 310.375 4477.49 285.939 4504.1 268.272C4530.72 250.376 4564.1 241.428 4604.25 241.428C4640.96 241.428 4672.97 249.458 4700.28 265.519C4727.81 281.35 4749.15 304.18 4764.29 334.007C4779.66 363.605 4787.23 399.054 4787 440.353V776.944H4640.39V466.51C4640.62 433.929 4632.36 408.576 4615.61 390.45C4599.09 372.324 4575.92 363.261 4546.09 363.261C4526.13 363.261 4508.46 367.506 4493.09 375.995C4477.95 384.484 4466.02 396.874 4457.3 413.165C4448.81 429.225 4444.45 448.613 4444.22 471.328Z" fill="#111111"/>
<path d="M4193.24 399.054L4059.02 407.314C4056.72 395.842 4051.79 385.517 4044.22 376.339C4036.64 366.932 4026.66 359.475 4014.27 353.968C4002.11 348.232 3987.54 345.364 3970.57 345.364C3947.85 345.364 3928.69 350.183 3913.09 359.819C3897.49 369.226 3889.69 381.846 3889.69 397.677C3889.69 410.296 3894.74 420.965 3904.83 429.684C3914.93 438.403 3932.25 445.401 3956.8 450.678L4052.48 469.951C4103.87 480.505 4142.19 497.484 4167.43 520.887C4192.67 544.29 4205.28 575.035 4205.28 613.123C4205.28 647.768 4195.07 678.169 4174.65 704.326C4154.46 730.482 4126.7 750.902 4091.37 765.587C4056.26 780.042 4015.77 787.269 3969.88 787.269C3899.9 787.269 3844.14 772.699 3802.61 743.56C3761.32 714.192 3737.11 674.269 3730 623.792L3874.2 616.22C3878.56 637.558 3889.11 653.849 3905.86 665.091C3922.61 676.104 3944.07 681.611 3970.22 681.611C3995.92 681.611 4016.57 676.678 4032.17 666.812C4048 656.717 4056.03 643.753 4056.26 627.922C4056.03 614.614 4050.41 603.716 4039.4 595.226C4028.38 586.507 4011.41 579.854 3988.46 575.265L3896.91 557.024C3845.29 546.699 3806.86 528.803 3781.62 503.335C3756.61 477.867 3744.11 445.401 3744.11 405.937C3744.11 371.98 3753.28 342.726 3771.64 318.176C3790.22 293.625 3816.27 274.696 3849.76 261.389C3883.49 248.081 3922.96 241.427 3968.16 241.427C4034.92 241.427 4087.47 255.538 4125.78 283.759C4164.33 311.981 4186.81 350.412 4193.24 399.054Z" fill="#111111"/>
<path d="M3397.88 787.269C3344.42 787.269 3298.19 775.912 3259.18 753.197C3220.41 730.253 3190.46 698.36 3169.36 657.52C3148.25 616.45 3137.69 568.84 3137.69 514.692C3137.69 460.085 3148.25 412.361 3169.36 371.521C3190.46 330.451 3220.41 298.558 3259.18 275.844C3298.19 252.899 3344.42 241.427 3397.88 241.427C3451.34 241.427 3497.46 252.899 3536.23 275.844C3575.24 298.558 3605.3 330.451 3626.4 371.521C3647.51 412.361 3658.07 460.085 3658.07 514.692C3658.07 568.84 3647.51 616.45 3626.4 657.52C3605.3 698.36 3575.24 730.253 3536.23 753.197C3497.46 775.912 3451.34 787.269 3397.88 787.269ZM3398.57 673.695C3422.89 673.695 3443.19 666.812 3459.49 653.046C3475.78 639.05 3488.05 620.006 3496.31 595.915C3504.8 571.823 3509.04 544.405 3509.04 513.66C3509.04 482.915 3504.8 455.496 3496.31 431.405C3488.05 407.314 3475.78 388.27 3459.49 374.274C3443.19 360.278 3422.89 353.28 3398.57 353.28C3374.02 353.28 3353.37 360.278 3336.62 374.274C3320.1 388.27 3307.59 407.314 3299.11 431.405C3290.85 455.496 3286.72 482.915 3286.72 513.66C3286.72 544.405 3290.85 571.823 3299.11 595.915C3307.59 620.006 3320.1 639.05 3336.62 653.046C3353.37 666.812 3374.02 673.695 3398.57 673.695Z" fill="#111111"/>
<path d="M2545.65 776.944V72.0996H2692.26V337.105H2696.74C2703.16 322.879 2712.45 308.424 2724.61 293.74C2737 278.827 2753.06 266.437 2772.8 256.571C2792.76 246.475 2817.54 241.428 2847.13 241.428C2885.68 241.428 2921.24 251.523 2953.83 271.714C2986.41 291.675 3012.45 321.847 3031.95 362.229C3051.45 402.381 3061.2 452.743 3061.2 513.316C3061.2 572.282 3051.68 622.071 3032.64 662.682C3013.82 703.064 2988.13 733.694 2955.55 754.574C2923.19 775.223 2886.94 785.548 2846.79 785.548C2818.34 785.548 2794.13 780.845 2774.17 771.438C2754.44 762.03 2738.26 750.214 2725.65 735.989C2713.03 721.534 2703.39 706.964 2696.74 692.28H2690.2V776.944H2545.65ZM2689.16 512.627C2689.16 544.061 2693.52 571.479 2702.24 594.882C2710.96 618.285 2723.58 636.526 2740.1 649.604C2756.62 662.453 2776.7 668.877 2800.33 668.877C2824.19 668.877 2844.38 662.338 2860.9 649.26C2877.42 635.952 2889.93 617.597 2898.41 594.194C2907.13 570.561 2911.49 543.373 2911.49 512.627C2911.49 482.112 2907.25 455.267 2898.76 432.093C2890.27 408.92 2877.77 390.794 2861.25 377.716C2844.73 364.638 2824.42 358.099 2800.33 358.099C2776.47 358.099 2756.28 364.408 2739.76 377.027C2723.47 389.647 2710.96 407.543 2702.24 430.717C2693.52 453.89 2689.16 481.194 2689.16 512.627Z" fill="#111111"/>
<path d="M2146.33 776.944V248.311H2288.47V340.546H2293.98C2303.62 307.736 2319.79 282.956 2342.51 266.207C2365.22 249.228 2391.38 240.739 2420.97 240.739C2428.32 240.739 2436.23 241.198 2444.72 242.116C2453.21 243.033 2460.67 244.295 2467.09 245.901V375.995C2460.21 373.93 2450.69 372.094 2438.53 370.488C2426.37 368.882 2415.24 368.079 2405.14 368.079C2383.58 368.079 2364.3 372.783 2347.32 382.19C2330.57 391.367 2317.27 404.216 2307.4 420.736C2297.76 437.256 2292.95 456.299 2292.95 477.867V776.944H2146.33Z" fill="#111111"/>
<path d="M1882.45 551.862V248.311H2029.06V776.944H1888.3V680.923H1882.79C1870.86 711.897 1851.01 736.792 1823.25 755.606C1795.72 774.42 1762.1 783.827 1722.41 783.827C1687.08 783.827 1655.99 775.797 1629.14 759.736C1602.3 743.675 1581.3 720.845 1566.16 691.248C1551.25 661.65 1543.68 626.201 1543.45 584.901V248.311H1690.06V558.745C1690.29 589.949 1698.66 614.614 1715.18 632.74C1731.7 650.866 1753.84 659.929 1781.61 659.929C1799.27 659.929 1815.79 655.914 1831.17 647.883C1846.54 639.623 1858.93 627.463 1868.34 611.402C1877.97 595.341 1882.68 575.494 1882.45 551.862Z" fill="#111111"/>
<path d="M1447.94 248.311V358.443H1129.59V248.311H1447.94ZM1201.87 121.659H1348.48V614.499C1348.48 628.036 1350.54 638.591 1354.67 646.162C1358.8 653.505 1364.54 658.667 1371.88 661.65C1379.45 664.632 1388.17 666.124 1398.04 666.124C1404.92 666.124 1411.8 665.55 1418.69 664.403C1425.57 663.026 1430.85 661.994 1434.52 661.306L1457.58 770.405C1450.24 772.699 1439.91 775.338 1426.6 778.321C1413.3 781.533 1397.12 783.483 1378.08 784.172C1342.74 785.548 1311.77 780.845 1285.15 770.061C1258.77 759.277 1238.23 742.528 1223.55 719.813C1208.86 697.098 1201.64 668.418 1201.87 633.773V121.659Z" fill="#111111"/>
<defs>
<filter id="filter0_d_113_298" x="0" y="157" width="819" height="633" filterUnits="userSpaceOnUse" color-interpolation-filters="sRGB">
<feFlood flood-opacity="0" result="BackgroundImageFix"/>
<feColorMatrix in="SourceAlpha" type="matrix" values="0 0 0 0 0 0 0 0 0 0 0 0 0 0 0 0 0 0 127 0" result="hardAlpha"/>
<feOffset dx="5" dy="5"/>
<feGaussianBlur stdDeviation="32"/>
<feComposite in2="hardAlpha" operator="out"/>
<feColorMatrix type="matrix" values="0 0 0 0 0 0 0 0 0 0 0 0 0 0 0 0 0 0 0.35 0"/>
<feBlend mode="normal" in2="BackgroundImageFix" result="effect1_dropShadow_113_298"/>
<feBlend mode="normal" in="SourceGraphic" in2="effect1_dropShadow_113_298" result="shape"/>
</filter>
<linearGradient id="paint0_linear_113_298" x1="-179" y1="-180" x2="1109" y2="1108" gradientUnits="userSpaceOnUse">
<stop stop-color="#8095FA"/>
<stop offset="0.5" stop-color="#0D2AA8"/>
<stop offset="1" stop-color="#8095FA"/>
</linearGradient>
</defs>
</svg>
