<svg width="929" height="928" viewBox="0 0 929 928" fill="none" xmlns="http://www.w3.org/2000/svg">
<rect width="928" height="928" transform="translate(1)" fill="url(#paint0_linear_128_2)"/>
<g filter="url(#filter0_d_128_2)">
<path d="M649.937 711.733C557.524 711.758 465.504 712.475 373.504 711.449C335.032 711.021 306.361 691.321 287.595 657.74C279.163 642.652 275.197 626.375 275.343 609.038C275.506 589.615 275.368 570.189 275.361 550.763C275.361 549.677 275.361 548.59 275.361 547.173C273.555 547.173 272.039 547.173 270.523 547.173C234.874 547.173 199.224 547.24 163.576 547.108C157.41 547.085 151.503 545.533 148.303 539.426C145.082 533.279 145.264 527.03 148.793 521.034C152.136 515.354 157.764 514.25 163.693 514.247C232.032 514.211 300.372 514.224 368.712 514.224C380.095 514.224 391.479 514.224 403.267 514.224C403.267 519.928 403.267 525.372 403.267 530.816C403.267 544.752 403.265 558.687 403.267 572.622C403.268 580.468 405.795 583.559 413.512 584.895C415.299 585.204 417.162 585.135 418.989 585.135C481.552 585.147 544.114 585.158 606.677 585.109C609.453 585.107 612.306 584.856 614.988 584.184C619.732 582.994 622.236 579.538 622.237 574.623C622.25 495.515 622.243 416.407 622.234 337.299C622.234 337.034 622.145 336.769 622.053 336.259C549.316 336.259 476.543 336.259 403.518 336.259C403.518 348.457 403.518 360.744 403.518 373.31C404.987 373.31 406.357 373.31 407.728 373.31C458.454 373.312 509.18 373.313 559.906 373.316C561.879 373.316 563.855 373.27 565.824 373.364C575.17 373.811 581.621 380.226 581.634 389.557C581.699 436.993 581.697 484.43 581.613 531.867C581.596 541.588 575.695 547.171 566.017 547.172C540.09 547.176 488.798 547.19 462.871 547.163C454.736 547.155 450.189 544.307 448.536 538.151C448.109 536.561 448.093 534.828 448.09 533.161C448.061 514.324 448.072 495.487 448.072 476.213C445.793 476.213 443.727 476.213 441.661 476.213C312.169 476.215 208.041 476.21 78.548 476.246C73.4954 476.247 68.6948 475.555 64.7978 472.13C59.7363 467.681 57.7405 462.107 59.8036 455.515C62.1287 448.086 67.4271 443.845 74.7395 443.318C76.1418 443.217 77.5563 443.277 78.9652 443.277C215.503 443.276 326.676 443.339 463.215 443.17C475.543 443.155 483.156 450.609 482.851 462.856C482.427 479.844 482.744 496.85 482.744 514.036C495.674 514.036 533.667 514.036 546.566 514.036C546.566 478.237 546.566 442.423 546.566 406.038C545.079 406.038 543.454 406.038 541.829 406.038C414.027 406.043 286.225 406.046 158.423 406.054C149.311 406.054 142.936 402.398 140.366 395.659C136.138 384.569 143.84 373.629 156.244 373.34C163.989 373.16 171.743 373.311 179.492 373.312C210.351 373.314 241.209 373.316 272.068 373.319C273.035 373.319 274.003 373.319 275.371 373.319C275.371 371.739 275.368 370.379 275.372 369.019C275.427 348.188 275.115 327.347 275.623 306.526C276.392 275.031 290.379 249.817 314.194 229.856C328.176 218.136 344.42 210.859 362.466 207.894C366.47 207.236 370.607 207.19 374.682 207.188C466.271 207.142 557.863 206.721 649.448 207.314C694.221 207.604 737.477 238.611 748.015 288.761C749.36 295.163 749.838 301.855 749.846 308.413C749.958 407.791 749.816 507.169 750 606.547C750.047 631.841 742.266 654.091 726.194 673.446C707.772 695.63 683.965 707.925 655.359 711.11C653.684 711.296 652.012 711.517 649.937 711.733ZM321.613 280.316C316.543 289.8 314.66 300.075 314.572 310.662C314.409 330.508 314.522 350.357 314.52 370.205C314.52 371.15 314.52 372.096 314.52 373.082C331.437 373.082 347.971 373.082 364.576 373.082C364.576 355.684 364.479 338.523 364.608 321.363C364.707 308.127 373.42 299.69 386.651 299.69C470.21 299.687 553.769 299.686 637.328 299.69C649.876 299.69 659.327 309.153 659.329 321.804C659.344 413.723 659.309 505.643 659.368 597.562C659.377 612.028 648.671 621.564 635.289 621.556C553.139 621.505 470.99 621.534 388.84 621.514C376.008 621.511 366.684 613.783 365.312 601.139C364.421 592.928 364.688 584.582 364.6 576.294C364.499 566.656 364.577 557.016 364.577 547.485C347.629 547.485 331.097 547.485 314.523 547.485C314.523 568.631 314.394 589.463 314.558 610.294C314.731 632.146 324.135 649.229 341.711 662.138C354.752 671.716 369.626 673.681 385.157 673.685C469.138 673.711 553.12 673.824 637.101 673.781C643.821 673.778 650.597 673.215 657.251 672.25C687.209 667.905 710.291 641.518 710.309 611.501C710.369 510.432 710.323 409.363 710.296 308.294C710.295 304.922 710.416 301.49 709.868 298.188C706.945 280.583 697.232 267.402 682.729 257.455C670.159 248.833 656.01 246.762 641.121 246.865C597.02 247.171 552.916 247.296 508.813 247.278C471.476 247.264 434.138 246.895 396.801 246.811C387.231 246.789 377.514 246.274 368.121 247.685C347.691 250.753 333.117 262.997 321.613 280.316Z" fill="white"/>
</g>
<defs>
<filter id="filter0_d_128_2" x="0" y="148" width="819" height="633" filterUnits="userSpaceOnUse" color-interpolation-filters="sRGB">
<feFlood flood-opacity="0" result="BackgroundImageFix"/>
<feColorMatrix in="SourceAlpha" type="matrix" values="0 0 0 0 0 0 0 0 0 0 0 0 0 0 0 0 0 0 127 0" result="hardAlpha"/>
<feOffset dx="5" dy="5"/>
<feGaussianBlur stdDeviation="32"/>
<feComposite in2="hardAlpha" operator="out"/>
<feColorMatrix type="matrix" values="0 0 0 0 0 0 0 0 0 0 0 0 0 0 0 0 0 0 0.35 0"/>
<feBlend mode="normal" in2="BackgroundImageFix" result="effect1_dropShadow_128_2"/>
<feBlend mode="normal" in="SourceGraphic" in2="effect1_dropShadow_128_2" result="shape"/>
</filter>
<linearGradient id="paint0_linear_128_2" x1="-180" y1="-180" x2="1108" y2="1108" gradientUnits="userSpaceOnUse">
<stop stop-color="#8095FA"/>
<stop offset="0.5" stop-color="#0D2AA8"/>
<stop offset="1" stop-color="#8095FA"/>
</linearGradient>
</defs>
</svg>
